<?xml version="1.0" encoding="UTF-8"?>
<svg xmlns="http://www.w3.org/2000/svg" viewBox="0 0 119.33 155.32">
    <path d="M38.05,89.01s-.06,.09-.07,.14c.04-.04,.06-.09,.07-.14Z"/>
    <path d="M62.67,14.32c-2.67-1.06-2.15,2.04-2.69,3.53-.57,.84-.34,1.25,.29,1.8,1.69,1.44-.63,3.1-.95,4.64-.28,.92-.13,2-.51,2.86-3.92,11.12-7.78,13.82-18.02,18.24,3.01-3.82,2.64-9.94,2.03-14.61,1.23-9.14-17.6-6.04-13.38,2.33,2.58-2.86,3.22-7.78,8.52-4.43-1.7,.22-3.45,.53-5.13,.09,.22,2.05,.7,4.35-1.34,5.54-.46-.39-1.11-.41-1.67-.58-.28,.82-.43,1.89,.33,2.47,1.91,1.99,2.8,4.36,5.6,5.53-10.79,.33-14.45-1.05-21.36-9.76-4.95-14.86,6.21-17.74,4.98-24.19-6.2-6.47-15.28,7.01-5.48,8.32l-.11,.37c-4.78-1.42-5.64-1.09-8.18,3.29-1.48,5.75-4.74,13.61-.75,18.88,4.45,5.1,10.9,8.26,15.48,12.85,1.94,10.93,8.42,25.72-8.79,26.09,3.31,2.85,6.5,5.89,9.54,9.08,.99,2.08,2.67,3.43,4.85,4.12,3.24,4.85,3.12,11.56,5.86,17.13-6.37-4.66-13.6-7.28-19.37-12.35,.18,1.55,1.97,1.95,.98,3.75-1.29,6.28-7.72,8.05-12.81,10.68,.65-2.79,2.36-5.24,3.45-7.9,2.11-.64,5.72-2.41,6.34-4.93-.37-4.76-4.97,.9-6.1,2.77-.02-.07-.04-.14-.06-.2-.14,.3-.32,.57-.55,.82C2.98,104.03-.1,106.87,0,110.58c6.33-1.71,13.41-5.21,14.61-12.33,6.97,3.48,13.22,8.55,19.79,12.46-3.46-5.85-5.25-12.45-6.81-19.12,7.79,2.14,10.57,.17,11.66-7.68,.91,.25,1.81,.49,3.01,.82,.3,2.37,2.32,4.04,4.31,5.78-.53,.45-.89,.75-1.29,1.1-8.49-7.99-8.59-.82-5.63,6.37,.98,6.38,.92,12.92-1.06,19.11-2.14-1.32-5.73-7.39-7.58-3.13-2.39,4.65-13.83-8.26-17.87-7.44,3.65,5.71,16.69,13.32,23.46,15.78-4.04,5.15-8.2,10.41-13.8,13.8-7.69,7.59-7.05,8.62,1.8,14.38,3.04,2.12,7.79,6.18,11.44,4.4,.63-.91,.02-1.84-.47-2.67-9.1-9.48-2.58-11.2,4.4-18.34,21.96-19.73,16.37-14.3,12.97-41.53-.11-.22-.37-.74-.48-.96-2.04-3.14,5.59-2.47,2.13-5.81-8-5.55-4.41-16.2-5.5-24.42-.8-1.88-1.81,1.26-1.98,2.06-1.56,7.63-1.36,16.11,2.87,22.89,.39,.89,1.14,2.28,.79,3.22-2.91,1.23-3.09,1.43-5.37-.91-5.3-4.27-.38-12.08-4.04-17.11l-.46,.04c1.22-3.56,3.71-7.06,3.86-10.81l-.28,.07c-.71,2-1.41,4-2.12,6,1.94-9.6-4.42-15.22-8.23-23.16,2.7,1.57,4.53,9.72,6.09,2.48,1.36,1.7,1.64-.18,2.64-.98,1.71,3.3,2.44,6.68,1.59,10.33,2.3-2.4,.77-7.08-.66-9.94l.38-.19c.81,.55,1.62,1.09,2.18,1.47-.21,.78-.59,1.38-.45,1.78,1.2,2.56,.93,5.35,1.62,7.99l.42-.07c-.17-2.15,.4-4.18,2.44-5.21,4.52-2.52,7.99-6.21,11.15-10.22,1.77-3.78,2.44-8.1,3.79-12.08,.6-2.72-3.49-1.96-5.22-2.78,.34-1.05,.64-1.93,.94-2.84,1.09,.61,2.8,.32,2.75,2.1,.9,.97,2.71,.03,1.34-1.21,1.42-4.11,3.38-8.78-2.44-9.73ZM8.35,96.39c.23-.25,.83-.14,1.26-.2,.11,2.46-2.52,4.02-4.58,4.75l-.32-.29c1.2-1.43,2.38-2.88,3.64-4.26Zm21.59,45.48l-.09,.29c-2.62,.3-9.4-2.52-5.97-5.45m8.72,12.98c1.11,1.48,2.72,2.8,2.78,4.78-5.77,.36-9.91-4.88-14.59-7.51-4.5-2.32-2.33-6.09,.96-8.36,2.04,2.91,4.72,4.36,8.28,4.41,.24,2.5,.75,4.82,2.58,6.68Zm20.78-49.7c.08,6.23,4.7,14.08,.46,19.45-7.21,7.84-15.39,14.65-23.21,21.85-1.99-1.52-4.53-3.23-6.1-5.51,6.1-3.29,8.7-9.61,13.75-13.48,10.75,.79,7.39-21.92,5.52-28.24-1.65,6.75,.83,14.52-.48,21.28-3.3,.73-4.34,6.34-7.21,5.91-8.1-3.06-15.09-8.63-21.99-13.78l.15-.25c4.34,1.08,14.28,12.43,17.45,7.07,.71-1.35,.91-1.43,2.09-.45,1.57,.82,4.56,5.93,5.76,2.67,1.51-6.55,2.12-13.46,.48-20.06-3.58-8.35-.53-10.28,5.29-3.31,2.03,.81,4.47,.9,6.65,.2,.46,2.22,1,4.42,1.37,6.65Zm-9.2,15.9c-.67,4.07-2.46,5.8-5.69,5.5,1.44-2.33,2.92-4.47,5.69-5.5Zm-.35-17.83h.37c.42,5.27,.97,10.56,.52,15.87h-.43m3.09-36.81c-.55-4.95-.62-9.97,.73-14.79l.4,.08c-2.71,28.13,11.91,22.44,3.33,26.42-1.32-4.01-3.95-7.43-4.46-11.71Zm3.76,13.03c1.81,3.66-1.93,3.16-3.95,2.55q.17-1.41,3.95-2.55ZM11.28,14.36c-1.95-.81-.26-3.59,.02-5.05,.98-3,7.52-3.48,7.79,.03-1.86,1.29-5.18-.61-5.39,3.02,1.56,.64,2.58-.23,4.16-.81-2.02,3.13-2.89,4.76-6.58,2.8Zm6.29-3.58c-1.16,.5-2.06,.88-2.95,1.27,.62-1.41,1.32-1.69,2.95-1.27Zm5.19,77.55l.18-.19c1.21,.29,2.41,.57,3.72,.89,.01,.28,.03,.66,.06,1.34-1.45-.74-2.71-1.39-3.96-2.03Zm3.86-.46c-1.34,.38-2.48,.06-4.01-1.17,1.27-1.21,2.6-2.12,4.61-2.07-.22,1.21-.41,2.23-.6,3.24Zm9.98,1.86c-1.35,3.42-5.62,1.36-8.3,1.06-1.19-.24-.62-1.25-.88-2.03,4.35-.66,7.3-3.67,10.76-5.87,.58,2.18-1.05,4.66-1.58,6.84Zm2.19-7.68l-.3-.31c-3.63,1.89-6.56,5.95-11.06,6.02,1.97-6.19-2.49-3.51-5.97-1.66-2.37-2.56-4.99-5.39-7.51-8.12,14.17-.32,9.72-16.6,7.28-25.66-.16-.73-.27-1.41,.58-1.97,1.92-2.5-1.51-5.4-1.65-.68C6.31,40.47,.13,37.7,6.2,20.16c.91-2.9,3.57,1.94,5.58,.87,.19-2-2.1-2.7-3.68-3.11,1.33-2.86,3.72-.64,6.2-.64-2.49,4.63-2.06,9.45-.72,14.46-1.19-.31-1.9-1-2.92-.43,.73,1.55,2.34,2.44,4.05,2.75,3.57,2.96,7.08,6.73,11.72,8.3,1.71,1.17-.1,3.69,1.55,5.05,1.56-1.3,1.4-3.31,.38-5.07h3.5c.28,2.03-2.94,8.67,.34,8.31,.82,0,1.65,0,2.83,0-7.04,5.15,6.08-.7,4.93,20.79l.29-.03c-.48,3.55-.97,7.1-1.45,10.65Zm2.94,.63c.03,.34-.34,.92-.66,1.03-3.35-.66,.06-8.58-.24-11.16,.3,3.31,.64,6.72,.9,10.13Zm-1.64-27.8c3.02,3.9,1.07,9.23,.69,13.69-.32-6.01-1.17-12.64-6.88-15.97,4.32-2.93,.56-2.82-2.39-2.7,.35-2.42,.67-4.71,1-7.01l.39-.04c2.1,4.2,4.09,8.44,7.2,12.03Zm-10.3-23.33c-.54-1.09,.52-3.28,1.83-3.55-.63,1.22-1.24,2.39-1.83,3.55Zm2.55-4.03c.8-2.9,5.18-.77,7.38-.87,1.63,.3,2.47,1.61,2.45,3.17-6.04-3.21-6.91-3.41-9.83-2.29Zm-.22,9.52c-.54-.73-1.43-1.44-2-2.22,3.33,1.48,3.42-2.6,3.9-4.79,9.3-2.71,8.74,2.91,7.98,10.2-.31,3.73-9.88-.14-9.87-3.19Zm6.58,11.22c-1.25-1.85-2.29-3.4-3.53-5.23,1.64,.67,2.98,1.21,4.46,1.82-.29,1.08-.56,2.06-.93,3.42Zm-.04-4.72c.92-.18,1.8-.36,2.66-.52-.07,1.4-.69,1.56-2.66,.52Zm21.8-16.6c1.18,.51,4.35,.02,4.1,1.81-1.05,3.6-2.09,7.2-3.18,10.79-3.16,5.53-8.68,8.82-13.52,12.68-.57-2.14-1.94-3.64-.19-5.59-.98-.69-2.06-1.45-3.26-2.3,4.19-1.29,7.64-3.53,10.27-6.91l1.18,.12c-.26-1.97,2.92-9.92,4.6-10.61Zm5.15-7.06c-.25,1.26-.75,2.46-1.18,3.84-1.24-.51-2.12-.87-3.12-1.28,.42-1.37,.9-2.81-1.07-3.7,1.82-.3,3.41,.37,4.54-1.02-1.1-.99-2.39-.37-3.82-.39-.06-1.41,.09-2.99,1.91-2.12,3.08,1.07,3.38,1.51,2.76,4.68Z"
    />
    <path d="M89.04,91.4c-6.62,11.42-7.99,24.74-12.32,37.1-1.74-1.48-3.57,.03-5.3-.57,3.8-11.03,1.85-23.1,5.86-34.11,0,0,2.37-9.14,2.37-9.15-.3,.04-.5-.05-.8,0-3.41,10.59-5.08,28.03-6.96,38.75-.81,4.85-5.61,8.09-5.25,13.46,.18,7.43,8.87,1.89,9.16-2.67,4.31-14.35,7.49-29.1,13.58-42.76l-.34-.06Zm-15.77,46.35c-7.7,6.39-6.15-3.48-3.63-7.96,1.18-2.09,4.17,.11,6.15,.1-.29,2.91-.65,5.63-2.52,7.86Z"
    />
    <path d="M117.95,4.15c.69-1.96,.61-2.21-.73-2.21-.17-1.54-.36-1.62-1.08-1.12-2.47-1.48-2.72,2.38-3.9,3.97-.11-.91-.56-1.19-.99-1.88-1.79,2.3,.94,5.56-.18,7.84-.14,.1,.1,.73,.16,1.12,.8,.02,1.44-.35,1.96-.83,.9-.08,1.81-.03,2.77-.03v1.41c-1.72,.31-5.09-1.02-5.09,1.62-.25,4.4,.9,9.35-.99,13.45-2.99,4.45-5.69,9.21-9.14,13.29l-.39-.02c-.85-5.64,1.63-11.79-3.56-16.08-3.35-4.32-10.66-2.19-11.98,2.99-.64,2.72-4.67,1.09-4.09,3.48,.81,2.61,3.2,4.88,6.11,4.83,1.48,3.56,4.58,13.6,9.69,9.47l.23,.28c-1.9,2.04-7.65,1.88-7.22-1.86,.11-2.36-1.97-3.47-3.55-4.75-3.8-3.44-5.82-8.76-8.53-13.01-2.85-7.4-3.5-15.45-3.75-22.99-1.06,.63-1.31,1.38-1.79,2.6-.8-1.84-.76-4.05-2.34-5.28-.4,.63-.49,.76-.5,1.67-.5-1.11-.57-1.57-1.47-2.1-.59,1.1-.01,2.3,.09,3.47-.95-.95-1.22-2.43-2.48-2.92-.62,1.26,.24,2.33,.51,3.71-.68-.49-1.03-.47-1.76-.42,.15,3.06,2.96,5.63,4.12,8.25,1.68-.56,3.28-1.09,5.02-1.66,.13,.87,.23,1.51,.33,2.2-1.69,.53-4.43,.11-4.35,2.49,.24,4.95-.26,10.13,1.77,14.78,1.8,2.18,7.19,18.31,9.53,15.56,1.46,12.89,7.2,16.4-3.42,27.64,6.04,2.32,21.26,1.13,11.69-7.62,1.97-.71,4.24-.52,5.21-2.61,1.25,5.87-1.73,11.61-4.19,16.8-3.33,3.3-9.8-4.46-12.97-5.16,.33,.56,.53,1.41,1.01,1.63,4.38,1.77,1.83,5.17,1.3,8.41l.52,.17c.85-1.91,1.05-4.07,1.88-6.04,10.71,6.35,9.15-.59,12.85-8.62,3.6-8.75-5.64-15.71-5.31-24.28,1.82,3.04,5.38,1.65,8.23,1.4,2.04,4.02-2.36,7.12-2.91,10.87,3.19-.92,5.34-4.39,7.32-6.96,1.16-1.68-1.07-2.52-2.14-3.44,3.08-2.63,2.66-3.77,1.84-5.72,6.55-9.96,12.07-14.87,10.29-27.51,0-.9,.29-1.35,1.25-1.27,1.05,.32,3.28-.63,3.34,.98,.07,4.12,.25,8.23,.2,12.34-.04,7.89-7.43,13.57-11.76,19.51-.47-3.3-2.09,.27-.9,1.65,2.06,4.07-.96,8.34-.87,12.44,1.75,6.02,.95,13.49,5.53,18.24-.29,.18-.5,.31-.81,.5-1.04-3.26-4.73-.79-4.6,1.74-4.13-.11-4.57-6.17-7.77-8.03-.49,3.51,.38,7.13,.11,10.7l-.3,.05c-1.11-3.13-3.01-4.67-5.25-1.35-1.57,3.93-9.91-2.82-8.98,3.24,.2-.25,.34-.38,.42-.54,.96-2.97,4.28-.47,6.52-.64,3.36,.07,4.44-6.84,6.65-.17-1.07-.25-1.53-1.32-2.54-.54,.94,.94,1.62,1.85,3.13,1.49,1.29,6.93-1.2,29.21,10.97,24.19,.95,8.94,10.71,1.3,2.94-8.14-.12-.14-.31-.36-.28-.49,.31-1.27-.45-1.8-1.37-2.06,.32-5.37,.63-10.64,.95-16.07l.19-.02c.04-.26,.1-.51,.18-.76-.13,.01-.27,.03-.4,.04-1.25-2.7,1.21-2.18,2.6-3.29-2.64-.73-3.4-1.54-4.17-4.26-.79-5.39-3.43-10.94-2.67-16.38,1.09-3.13,1.51-6.27,1.01-9.56,2.04-4.81,6.65-8.62,9.56-13.06,4.72-7.12,2.3-16.75,2.4-24.86-.27-2.47,2.18-3.45,2.48-5.69-.46-.06-.93-.13-1.38-.19Zm-45.25,5.64c-1.3,.38-2.74,.8-4.29,1.25-1.26-2.03-2.51-4.05-3.76-6.07,1.44,.47,1.46,2.29,2.69,2.93l.4-.26c-.48-1.4-.95-2.81-1.43-4.21l.17-.08c.65,1.01,.9,2.39,2.09,2.87,.42-.9,.12-1.66-.05-2.65,.86,.54,.43,1.97,1.82,2.15l-.2-2.54,.14-.03c.47,1.44,.94,2.88,1.4,4.33h.49c.34-.94,.68-1.9,1.01-2.86l.25,.06c-.24,1.63-.47,3.26-.74,5.1Zm21.14,53c-.72-.41-1.44-.83-2.31-1.33h2l.31,1.33Zm-1.28-2.02c-1.35-.24-2.69-.98-4.02-.4,.79,1.72,2.99,1.7,4.39,2.77v.38c-4.25,1.56-7.95,.18-2.74,4.79,3.45,6.35-8.15,5.59-11.65,3.98,7.92-8.7,5.78-12.86,2.97-23.21-1.49-3.44,1.64-6.05,.87-9.07-1.11,1.9-1.3,3.9-3.07,5.03-3.7-7.77-9.38-15.28-9.37-24.18,.06-3.34-1.57-7.67,3.34-7.39,1.11,4.69,2.73,9.1,3.48,13.61-.67,1.57-.25,1.29,1.21,1.39,2.51,4.77,4.46,9.91,9.67,12.73-1.21,1.65-5.47,3.46-2.74,5.27-3.11,2.92,6.32,10.73,7.86,14.01l-.21,.28Zm-.53-3.13l-.26,.18c-2.19-2.68-4.26-5.47-6.29-8.26-1.55-1.85-.17-1.7,1.09-3.09-.69-.42-1.25-.76-2.06-1.25,1.1-1.02,2.1-1.95,3.1-2.88l.38-.03c-.47,5.61,1.3,10.6,4.04,15.33Zm-4.9-26.67c-.42,1.28,.27,3.53-1.18,4.17-1.69,.04-4.38-2.75-4.49-4.68,5.08,.51,3.82-7.47,8.77-6.57,1.66-1.18,2.69-1.29,4.42,0,5.65,3.64,5.48,9.99,4.27,16-.63-1.57-1.25-3.11-.97-4.83-.59-5.05-6.59-3.77-6.72-10.57-.83,1.88-.43,3.99-2.18,5.46-.3,.33-.59,.86-1.12,.27-.28,.25-.75,.48-.8,.77Zm10.18,7.17c-.22-1.21-.25-2.47-.74-3.61l-.31,.04c-3.2,11.16-12.88,.26-5.03-6.36,2.32,3.84,7.16,4.36,6.08,9.92Zm.01,.15c.68,1.16,1.37,2.33,2.08,3.53-1.67-.83-2.22-1.79-2.08-3.53Zm.31,5.24c-.14-.57-.24-1.01-.35-1.44h-.37c-.09,2.15-.64,2.94-2.53,3.59-2.04,1.08-5.88-6.8-6.58-8.58,2.81,3.75,5.44,3.86,8.33,.59q1.12,3.45,2.58,4.9c-.32,.28-.64,.56-1.08,.94Zm3.18,1.49c-6.64,6.23,6.42,.95-4.78,11.38l-.26-.21c1.9-3.25,3.46-6.55,1.97-10.3-.65-2.69,3.31-3.74,3.07-.87Zm6.31,36.32h-2.2l-.02-.31c.67-.3,1.34-.61,2.11-.95l.12,1.26Zm-1.68-3.34c.93-.2,1.12,.47,1.41,1.27-.96,.44-1.88,.85-2.85,1.28-.12-1.28,.53-2.36,1.44-2.56Zm2.88,23.67l.3-.09c6.08,8.59-1.07,14.23-1.9,7.77,.44-2.58,1.27-5.09,1.6-7.68Zm-1.85-4.68c.06,1.61-.7,.77-1.52,1.57,.29,.48,.74,.58,1.27,.54,3.46-.3,.29,4.68,.39,6.59-.76,4.23-5.77,4.62-7.41,1.11-4.63-9.98-2.88-21.52-3.2-32.2,2.23,4.59,5.54,7.72,11.1,7.59,.24,4.91-.5,9.86-.64,14.79ZM117.49,6.3c-1.71,3.35-.75,4.35-5.19,3.93-.34-1.34-.7-2.74-1.05-4.14,1.88,1.63,1.99-2.73,3.25-3.65-.18,.84-.61,1.66-.26,2.5,.97-.66,1.23-1.89,1.81-2.86l.31,.15c-.34,.83-.69,1.67-1.04,2.52,.69,1.4,1.66,1.48,2.93,.61-.26,.31-.58,.59-.76,.94Z"
    />
    <path d="M93.36,86.05l-.82,2.87-.51-.15,.85-2.86,.48,.14Z"/>
    <path d="M22.94,88.14l3.72,.89,.06,1.34-3.96-2.03,.18-.19Z"/>
    <path d="M14.62,12.05c.62-1.41,1.32-1.69,2.95-1.27l-2.95,1.27Z"/>
    <path d="M38.66,43.51l2.66-.52c-.07,1.4-.69,1.56-2.66,.52Z"/>
    <path d="M97.3,38.27c.69,1.17,1.38,2.34,2.09,3.55-1.68-.84-2.24-1.8-2.07-3.57l-.02,.02Z"
    />
    <path d="M93.89,62.82l-2.36-1.36h2c.13,.38,.17,1.08,.36,1.36Z"/>
</svg>