<?xml version="1.0" encoding="UTF-8"?><svg xmlns="http://www.w3.org/2000/svg" viewBox="0 0 340.63 67.03"><g id="a"/><g id="b"><g id="c"><path d="M340.63,4.12c0,.74-.17,1.43-.52,2.06-.35,.63-.82,1.13-1.43,1.51-.61,.37-1.26,.55-1.96,.55s-1.35-.18-1.96-.55c-.61-.37-1.08-.87-1.43-1.5-.35-.63-.52-1.32-.52-2.04s.17-1.42,.52-2.06c.35-.64,.83-1.14,1.43-1.51,.61-.37,1.26-.55,1.96-.55s1.35,.18,1.96,.55c.6,.37,1.08,.87,1.43,1.51,.35,.64,.52,1.32,.52,2.04m-.54,0h0c0-.62-.15-1.22-.45-1.77-.31-.55-.72-.99-1.23-1.3-.52-.32-1.08-.48-1.67-.48s-1.17,.16-1.69,.48c-.53,.32-.94,.76-1.24,1.3-.31,.56-.45,1.15-.45,1.78s.14,1.22,.45,1.77c.3,.55,.71,.98,1.24,1.3,.53,.32,1.09,.48,1.69,.48s1.15-.16,1.67-.48c.52-.32,.94-.75,1.23-1.3,.3-.55,.45-1.14,.45-1.78m-5-2.39h0V6.46h.71v-1.97h1.13c.28,0,.48,.02,.57,.06,.09,.04,.16,.1,.21,.19,.05,.08,.09,.23,.1,.45l.03,.58c.02,.27,.06,.5,.11,.7h.8l-.08-.13c-.1-.17-.16-.37-.16-.62v-.53c0-.34-.04-.57-.11-.71-.07-.14-.2-.26-.41-.36,.23-.15,.37-.29,.43-.42,.09-.17,.13-.38,.13-.62,0-.28-.06-.52-.19-.73-.12-.21-.27-.36-.47-.45-.19-.09-.51-.14-.95-.14h-1.88Zm.71,.68h0v1.4h1.11c.34,0,.56-.04,.69-.12,.18-.11,.27-.31,.27-.58,0-.24-.07-.42-.19-.53-.13-.11-.36-.17-.71-.17h-1.15Z" style="fill:#fff; fill-rule:evenodd;"/><path d="M131.36,12.57c2.42,0,4.71,.49,6.87,1.48,2.16,.99,4.05,2.32,5.66,4.02,1.6,1.7,2.87,3.69,3.8,5.98,.93,2.29,1.4,4.71,1.4,7.27s-.47,5.04-1.4,7.31c-.93,2.26-2.2,4.25-3.8,5.94-1.61,1.69-3.49,3.04-5.66,4.02-2.16,.98-4.45,1.48-6.87,1.48-2.6,0-5.05-.56-7.33-1.7v-9.44c.84,1.52,1.9,2.74,3.18,3.65,1.28,.91,2.66,1.37,4.15,1.37,1.26,0,2.46-.33,3.59-1,1.14-.66,2.13-1.56,2.96-2.69,.84-1.13,1.5-2.47,1.99-4.02,.48-1.55,.73-3.18,.73-4.91s-.25-3.34-.73-4.87c-.49-1.53-1.15-2.87-1.99-4.02-.84-1.15-1.82-2.07-2.96-2.73-1.14-.67-2.33-1-3.59-1s-2.46,.32-3.59,.96c-1.14,.64-2.13,1.53-2.97,2.66-.84,1.13-1.5,2.46-1.99,3.98-.49,1.53-.73,3.15-.73,4.87v33.65c-1.21,.69-2.49,1.24-3.84,1.63-1.35,.39-2.88,.58-4.6,.58V31.31c0-2.56,.46-4.98,1.39-7.27,.93-2.29,2.2-4.28,3.8-5.98,1.61-1.7,3.47-3.04,5.62-4.02,2.14-.98,4.45-1.48,6.91-1.48m63.01-.06c-2.46,0-4.77,.49-6.91,1.48-2.14,.99-4.01,2.33-5.61,4.04-1.61,1.7-2.87,3.7-3.8,5.97-.93,2.27-1.39,4.72-1.39,7.34s.47,5.06,1.39,7.34c.93,2.27,2.2,4.26,3.8,5.96,1.6,1.7,3.48,3.05,5.61,4.04,2.14,.99,4.45,1.48,6.91,1.48,1.35,0,2.64-.14,3.87-.44,1.23-.3,2.41-.71,3.53-1.26v-9.56c-.88,1.58-1.96,2.81-3.25,3.7-1.28,.89-2.66,1.34-4.15,1.34-1.26,0-2.45-.34-3.6-1-1.14-.66-2.13-1.57-2.96-2.7-.84-1.14-1.5-2.47-1.99-4.01-.49-1.53-.73-3.16-.73-4.89s.24-3.43,.73-4.96c.49-1.53,1.15-2.87,1.99-4,.84-1.14,1.83-2.04,2.96-2.7,1.15-.67,2.34-1,3.6-1,1.96,0,3.69,.72,5.2,2.15,1.51,1.43,2.64,3.28,3.38,5.56,.24,.79,.41,1.59,.52,2.41,.12,.82,.18,1.67,.18,2.55v15.41c1.21,.7,2.5,1.24,3.87,1.64,1.37,.39,2.9,.59,4.57,.59V31.33c0-2.62-.46-5.06-1.39-7.34-.93-2.27-2.2-4.26-3.8-5.97-1.61-1.7-3.48-3.05-5.62-4.04-2.14-.99-4.44-1.48-6.91-1.48m45.29,26.14c-.88,1.58-1.81,2.84-2.79,3.78-.97,.95-2.21,1.41-3.7,1.41-1.3,0-2.47-.34-3.49-1.03-1.03-.69-1.9-1.62-2.62-2.79-.72-1.18-1.28-2.57-1.68-4.17-.39-1.61-.59-3.3-.59-5.08V12.52c-1.72,0-3.27,.21-4.64,.65-1.38,.43-2.67,1.01-3.88,1.72v15.9c0,2.7,.42,5.22,1.26,7.56,.83,2.34,1.99,4.39,3.49,6.15,1.49,1.76,3.27,3.15,5.34,4.17,2.07,1.02,4.34,1.53,6.81,1.53,1.3,0,2.42-.16,3.35-.46,.93-.31,1.97-.74,3.13-1.3v-9.79Zm10.33,9.18V12.44c-1.72,0-3.25,.21-4.6,.64-1.35,.43-2.63,.99-3.84,1.69V48.06c0,1.75-.26,3.39-.77,4.92-.51,1.53-1.19,2.87-2.02,4.02-.84,1.15-1.82,2.05-2.93,2.71-1.11,.65-2.3,.98-3.56,.98-1.07,0-2.29-.21-3.66-.64-1.37-.42-2.83-1.44-4.37-3.04l-.07,.07c-1.25,1.8-2.18,3.73-2.79,5.78,1.49,1.31,3.15,2.31,4.99,3.01,1.84,.7,3.81,1.05,5.9,1.05,2.42,0,4.71-.5,6.87-1.51,2.16-.99,4.05-2.36,5.65-4.09,1.6-1.73,2.87-3.74,3.8-6.05,.93-2.3,1.39-4.79,1.39-7.44M263.39,.06c-1.72,0-3.27,.21-4.64,.64-1.37,.43-2.66,1-3.87,1.7V31.05c0,2.68,.47,5.16,1.39,7.48,.93,2.32,2.2,4.35,3.81,6.09,1.6,1.74,3.48,3.12,5.64,4.12,2.17,1.01,4.48,1.51,6.95,1.51v-6.34c-1.31,0-2.52-.34-3.63-1.02-1.11-.68-2.1-1.6-2.92-2.76-.85-1.16-1.51-2.52-1.99-4.08-.49-1.56-.73-3.23-.73-4.99V.06Zm23.97,13.93c-2.16,.99-4.05,2.33-5.66,4.03-1.6,1.7-2.87,3.7-3.8,5.99-.93,2.29-1.4,4.74-1.4,7.35s.47,5.05,1.4,7.32c.93,2.27,2.2,4.25,3.8,5.95,1.61,1.7,3.5,3.04,5.66,4.03,2.16,.98,4.48,1.48,6.95,1.48s4.6-.47,6.7-1.4c2.09-.94,3.93-2.22,5.51-3.85l-4.11-4.43c-.74,.74-1.54,1.38-2.37,1.92-.75,.5-1.61,.9-2.59,1.22-.98,.32-2.03,.43-3.14,.33-1.3,0-2.51-.32-3.63-.96-1.12-.65-2.1-1.52-2.93-2.63-.84-1.11-1.5-2.41-1.99-3.88-.48-1.48-.73-3.07-.73-4.8,0-1.83,.22-3.52,.67-5.07,.44-1.55,1.06-2.88,1.85-3.99,.79-1.11,1.73-1.97,2.82-2.59,1.09-.62,2.32-.92,3.66-.92,1.72,0,3.06,.26,4.02,.78,.95,.52,1.67,1.12,2.16,1.81,.49,.69,.79,1.37,.91,2.04,.11,.66,.17,1.12,.17,1.37,0,.29-.11,.85-.35,1.66-.23,.81-.84,1.59-1.82,2.33-.97,.74-2.45,1.25-4.43,1.55-1.98,.3-4.71,.08-8.2-.66v.88c0,1.87,.33,3.7,.98,5.47,2.65,.54,5.24,.73,7.78,.56,2.53-.18,4.79-.67,6.77-1.48,1.97-.81,3.59-1.97,4.85-3.47,1.26-1.51,1.93-3.34,2.03-5.51,.09-1.82-.25-3.57-1.01-5.25-.77-1.67-1.82-3.15-3.15-4.43-1.32-1.28-2.89-2.3-4.7-3.07-1.81-.76-3.72-1.14-5.72-1.14-2.47,0-4.78,.49-6.95,1.48m38.76,28.93c-1.11-.66-2.09-1.57-2.93-2.7-.84-1.14-1.5-2.47-1.99-4.01-.49-1.53-.73-3.16-.73-4.89s.24-3.42,.73-4.93c.49-1.51,1.15-2.82,1.99-3.96,.84-1.14,1.81-2.04,2.93-2.71,1.12-.67,2.32-1.02,3.63-1.07,1.07-.05,2.29,.15,3.66,.59,1.38,.44,2.8,1.45,4.29,3.03l.08-.07c.7-.94,1.27-1.87,1.71-2.82,.45-.94,.83-1.9,1.15-2.89-1.49-1.28-3.15-2.27-4.99-2.96-1.84-.69-3.8-1.04-5.89-1.04-2.47,0-4.77,.49-6.91,1.48-2.14,.99-4.01,2.33-5.62,4.04-1.61,1.7-2.87,3.7-3.8,5.97-.93,2.27-1.39,4.72-1.39,7.34s.46,5.06,1.39,7.34c.93,2.27,2.19,4.26,3.8,5.96,1.6,1.7,3.48,3.05,5.62,4.04,2.14,.99,4.44,1.48,6.91,1.48,2.09,0,4.06-.35,5.89-1.04,1.84-.69,3.5-1.68,4.99-2.96-.32-.99-.71-1.95-1.15-2.89-.43-.94-1.01-1.88-1.71-2.81l-.08-.08c-1.49,1.58-2.91,2.6-4.29,3.04-1.37,.44-2.59,.64-3.66,.59-1.31-.04-2.52-.41-3.63-1.07m-60.85-21.23h7.4v-6.91h-7.4v6.91Zm-112.35,10.85v17.59c1.72,0,3.27-.2,4.64-.63,1.37-.42,2.66-1,3.88-1.73v-15.23c0-4.77,1.83-9.93,5.65-12.35,2.14-1.36,4.92-1.42,7.19-.43l2.37-6c-1.92-.87-3.94-1.26-6-1.26-9.78,0-17.72,8.99-17.72,20.04m-60.59-6.05c-1.35-.38-2.49-.75-3.43-1.1-.95-.36-1.68-.73-2.22-1.11-.53-.39-.94-.85-1.2-1.42-.27-.61-.27-1.18,0-1.72,.26-.54,.68-1,1.25-1.37,.58-.39,1.26-.68,2.07-.88,.8-.21,1.64-.28,2.52-.23,1.55,.05,3.25,.37,5.09,.96,1.86,.58,3.75,1.75,5.71,3.48,1.14-.82,2.1-1.66,2.87-2.52,.78-.87,1.46-1.76,2.07-2.68-1.95-1.43-4.15-2.6-6.61-3.52-2.46-.92-5.16-1.5-8.11-1.76-2.69-.2-5.1-.07-7.22,.38-2.12,.46-3.91,1.15-5.39,2.07-1.48,.92-2.64,1.98-3.48,3.17-.84,1.2-1.33,2.41-1.47,3.63-.13,.97-.03,1.95,.31,2.95,.33,1,.98,1.98,1.91,2.95,.94,.97,2.23,1.9,3.88,2.79,1.65,.89,3.75,1.72,6.3,2.49,1.88,.51,3.56,.97,5.04,1.37,1.48,.41,2.71,.85,3.68,1.3,.98,.45,1.72,.99,2.22,1.61,.5,.61,.72,1.35,.66,2.22-.14,1.38-.94,2.51-2.42,3.41-1.48,.89-3.77,1.26-6.86,1.11-1.55-.1-3.25-.44-5.09-1.03-1.85-.59-3.72-1.74-5.6-3.48-1.15,.87-2.1,1.72-2.88,2.56-.77,.84-1.46,1.72-2.07,2.64,1.95,1.43,4.27,2.64,6.96,3.63,2.69,.99,5.42,1.57,8.17,1.72,2.49,.1,4.93-.05,7.31-.46,2.39-.41,4.51-1.08,6.36-1.99,1.84-.92,3.38-2.08,4.58-3.48,1.21-1.4,1.88-3.02,2.01-4.86,.27-2.6-.65-4.87-2.77-6.81-2.12-1.93-5.19-3.49-9.23-4.67-1.95-.51-3.59-.96-4.94-1.34" style="fill:#fff;"/><path d="M46.53,63.12c-8.45,4.65-18.78,5.28-28.11,.75C2.51,56.14-4.42,36.34,2.94,19.64,6.53,11.52,12.83,5.63,20.19,2.61c-5.96,3.29-10.99,8.58-14.03,15.49-7.37,16.7-.44,36.5,15.47,44.24,8.17,3.97,17.13,3.98,24.9,.79" style="fill:#fff; fill-rule:evenodd;"/><path d="M61.66,0c9.98,32.17-1.2,57.53-30.73,58.27,20.26-4.37,30.26-15.3,31.71-36.31-2.39,24.08-17.91,32.6-34.79,34.28-5.92-14.49,4.11-30.1,21.81-36.23-21.88,1.76-30.86,14.62-29.58,35.52C6.44,37.15,6.38,21.78,28.03,7.41c1.85-1.23,4.02-3.76,4.69-4.99,.25-.46,.65-.27,.87-.05,1.85,1.97,2.67,3.76,3.59,7.2,.19,.49-.14,.77-1.29,1.12-15.13,5.43-25.65,21.72-16.23,43.59C14.45,25,24.99,16.25,48.93,7.57c3.99-1.45,8.86-4.4,12.72-7.57" style="fill:#fff; fill-rule:evenodd;"/></g></g></svg>